<svg id="Layer_1" data-name="Layer 1" xmlns="http://www.w3.org/2000/svg" viewBox="0 0 112.31 117.73"><path d="M752.64,393.46a14.16,14.16,0,0,1-1.47,0c-4.49-.52-8.71.17-12.43,2.87a21.55,21.55,0,0,0-3,2.91c-.2.22-.15.75-.09,1.11a12,12,0,0,1-11.61,13.9,9.87,9.87,0,0,1-6.76-2c-1.83-1.56-3.53-1-5.27-.36a16.5,16.5,0,0,0-9.16,9c-.29.63-.61,1.25-1.08,2.21-.4-.74-.68-1.15-.87-1.59a16.81,16.81,0,0,0-8.08-9,21.21,21.21,0,0,0-4.55-1.38c-.4-.09-1,.36-1.4.67A11.94,11.94,0,0,1,669.76,409a9.84,9.84,0,0,1-2-7.35c.44-2.44-.87-3.68-2.37-4.87-3.89-3.07-8.4-3.89-13.24-3.32-.4,0-.82,0-1.57,0,.56-.83.93-1.41,1.33-2a15.29,15.29,0,0,0,2.29-15.64,1.4,1.4,0,0,0-.78-.61c-4.9-2.05-7.83-6.21-7.85-11.17s2.88-9.24,7.91-11.36a1.51,1.51,0,0,0,.75-.65,15.2,15.2,0,0,0-1-13.47c-.72-1.31-1.61-2.52-2.62-4.08a15.37,15.37,0,0,1,1.7,0c4,.47,7.94,0,11.41-2.23a26.69,26.69,0,0,0,3.91-3.47,1.7,1.7,0,0,0,.19-1.21,12,12,0,0,1,19.48-11.12,1.74,1.74,0,0,0,1.15.35c5.46-.82,9.15-4,11.71-8.77.3-.56.52-1.17.83-1.73a10.23,10.23,0,0,1,.73-1,5.06,5.06,0,0,1,.76,1,19.73,19.73,0,0,0,4.21,6.35,14.39,14.39,0,0,0,8.42,4.19,1.79,1.79,0,0,0,1.13-.43,12,12,0,0,1,19.38,7.34,32.3,32.3,0,0,1,0,3.94,2.36,2.36,0,0,0,.41,1.34c4,4.86,9.23,6.08,15.18,5.45a6.59,6.59,0,0,1,1.24.12,4.35,4.35,0,0,1-.44,1.14,17.27,17.27,0,0,0-3.78,12.77,17.73,17.73,0,0,0,1,3.67c.09.28.6.46,1,.6,4.37,1.88,7,5.14,7.55,9.87A11.55,11.55,0,0,1,752.48,374a3.27,3.27,0,0,1-1,.6c-2.57.62-2.93,2.75-3.17,4.82a16.83,16.83,0,0,0,3.58,12.47c.24.32.46.65.67,1A3.6,3.6,0,0,1,752.64,393.46Zm-93.18-14.18.11-1.63-1.23-.3.46-1.4c-.29-.25-.91-.62-.86-.76a8.49,8.49,0,0,1,1-1.57l-1.72-2.57c-.14.56-.25.89-.32,1.23-.54,2.72.58,5.73,2.6,7,2.14,2.36,7.13,2.65,9.75.6l-4.38-1.31-1.1,1.64-.9-.85-1.16.81-.68-1.21Zm84.3-.14-1.35-.27-.53,1.24-1.24-.75-.94.81-1.07-1.65-4.36,1.32c2.28,1.84,7.14,1.81,9.27-.08.14-.13.15-.41.21-.61.34-.15.85-.21,1-.47a22.41,22.41,0,0,0,1.81-3.68,5.57,5.57,0,0,0-.32-4.08l-1.92,3,1.27,1.2-1,.87.59,1.25-1.2.36Zm-34.34-59.56-1.31.79c-2.47,1.52-4.3,5.1-3.83,7.52l3.33-3.13-.9-1.66,1.14-.45v-1.46l1.42.13c.05-.51.1-1.13.15-1.75l1.57,1.08,1-.93.9,1.14,1.08-.44.55,1.7,3.44-.23c-.57-.52-.93-.88-1.32-1.19C714.41,319,712,318.92,709.42,319.58ZM694,408.47l1.18-.73c2.76-1.64,4.51-4.94,4-7.77-.6.65-1.11,1.24-1.68,1.79s-1.18,1-1.65,1.43l1,1.7-1.18.44v1.47l-1.35-.15c-.1.6-.21,1.21-.31,1.83l-1.48-1.2-.87,1-1-1.15c-1.22.83-1.3.78-1.5-1.13h-3.54a6.24,6.24,0,0,0,3.8,2.49A30.71,30.71,0,0,0,694,408.47ZM651.66,335c2.83,4.07,4.67,8.22,4.17,13.37,3.75-4.13,8.07-4.91,13.21-3.3-4-3.7-5.31-7.85-3.83-13A18.45,18.45,0,0,1,651.66,335Zm50.09,67c-1.2,5-4,8.42-9.46,9.53a18.5,18.5,0,0,1,9.47,10.4,18.47,18.47,0,0,1,9.39-10.43C705.74,410.38,703,407,701.75,402Zm9.42-85.56a18.51,18.51,0,0,1-9.45-10.4,18.52,18.52,0,0,1-9.38,10.42c5.37,1.14,8.21,4.44,9.41,9.75C702.93,320.88,705.79,317.65,711.17,316.44ZM652,392.9a18.27,18.27,0,0,1,13.28,3c-1.7-5.24-.23-9.38,3.8-13.05-5.22,1.72-9.51.83-12.88-2.83a47.19,47.19,0,0,1-1.19,6.65A49,49,0,0,1,652,392.9Zm95.48-44.74c.41-4.33-.67-4.91,4.22-13.11a18.42,18.42,0,0,1-13.5-3,11.38,11.38,0,0,1,.28,7.13,12.29,12.29,0,0,1-3.9,5.75C741.68,343.91,743.59,344.39,747.47,348.16Zm4,44.76a49,49,0,0,1-3-6.3,45,45,0,0,1-1.19-6.65c-3.39,3.69-7.61,4.51-12.45,3.13,3.68,3.52,5,7.63,3.4,12.77A18.14,18.14,0,0,1,751.51,392.92Zm-1.21-25.25a8.78,8.78,0,0,1,1,1.35c.15.32.29.94.14,1.06a1.57,1.57,0,0,1-1.17.23,7.28,7.28,0,0,1-1.47-.63l.83,3.82c4.13-1.26,7.07-6,6.57-10.59-.42-3.92-3.79-8.14-6.62-8.31l-.69,3.62a8.4,8.4,0,0,1,1.54-.57,1.37,1.37,0,0,1,1,.24c.15.15,0,.69-.11,1a10.12,10.12,0,0,1-1,1.38,20.91,20.91,0,0,1,2.36-.19,1.08,1.08,0,0,1,.8.54c.1.19-.1.64-.3.81-.53.45-1.13.81-1.8,1.28a15.21,15.21,0,0,1,2.2.45c.37.14.64.59.95.9-.31.28-.57.68-.93.8a16.28,16.28,0,0,1-2.28.46,7.32,7.32,0,0,1,1.31.83,7.86,7.86,0,0,1,.89,1.3,8.27,8.27,0,0,1-1.58.5A7.32,7.32,0,0,1,750.3,367.67Zm-69.64,40.17a10.76,10.76,0,0,1-.74,1.86,4.33,4.33,0,0,1-1.11.9,4.58,4.58,0,0,1-.64-1.19,10.61,10.61,0,0,1,0-1.89,22.44,22.44,0,0,1-1.69,1.89,1.48,1.48,0,0,1-1.15.26c-.18-.05-.33-.71-.26-1a18.85,18.85,0,0,1,.69-2.28,18.07,18.07,0,0,1-1.94.9,1.07,1.07,0,0,1-.95-.19,1.08,1.08,0,0,1,0-1,20.73,20.73,0,0,1,1.38-1.89,11.51,11.51,0,0,1-1.8.18.77.77,0,0,1-.56-1.4,10.24,10.24,0,0,1,1.31-1.06l-3.55-1.22c-1.11,3.61,1.2,8.46,5,10.58s9.07,1.5,11.35-1.15l-2.86-2.43a6.63,6.63,0,0,1-.2,1.41,4.7,4.7,0,0,1-.69,1,4.08,4.08,0,0,1-1-.76A8,8,0,0,1,680.66,407.84Zm-6.6-84.3a18.07,18.07,0,0,1-1.22-1.7,1.14,1.14,0,0,1,0-1c.11-.18.61-.25.86-.16a20.83,20.83,0,0,1,2,.88c-.25-.84-.53-1.61-.69-2.41a1.07,1.07,0,0,1,.34-.9,1,1,0,0,1,1,.18,26.65,26.65,0,0,1,1.85,2,12.32,12.32,0,0,1,0-2.05c.07-.37.45-.67.68-1,.31.22.72.37.9.67a19.25,19.25,0,0,1,.9,2,10.92,10.92,0,0,1,.72-1.6c.17-.27.61-.61.81-.55a1.43,1.43,0,0,1,.73.81,7.72,7.72,0,0,1,.25,1.56l2.89-2.51a10.07,10.07,0,0,0-12-.7c-3.46,2.2-5.43,6.69-4.46,10.22l3.26-1.13L671.55,324ZM722.8,320a17.85,17.85,0,0,1,1.05-2.18c.49-.73,1.14-.61,1.37.23a16.45,16.45,0,0,1,.28,2.16,17.12,17.12,0,0,1,1.6-1.73,1.13,1.13,0,0,1,1-.18,1.18,1.18,0,0,1,.31,1c-.17.78-.48,1.53-.78,2.44a5.08,5.08,0,0,1,1.17-.69,13,13,0,0,1,1.77-.21,12,12,0,0,1-.51,1.8,5.67,5.67,0,0,1-.92,1.14,10.25,10.25,0,0,1,1.73-.18c.34,0,.86.22,1,.48a1.32,1.32,0,0,1-.36,1,8.09,8.09,0,0,1-1.22,1l3.56,1.22c1.13-3.54-1.23-8.45-5.06-10.58s-9-1.51-11.32,1.14l2.84,2.45a11,11,0,0,1,.26-1.68c.1-.3.41-.69.67-.72s.64.28.82.54A12.53,12.53,0,0,1,722.8,320Zm-2.7,87.87-2.71,2.3a10.18,10.18,0,0,0,12.89.1c3-2.33,4.6-7.19,3.48-9.59l-3.49,1.25a4.6,4.6,0,0,1,1,.72,8.14,8.14,0,0,1,.66,1.28,7.66,7.66,0,0,1-1.39.42,5.37,5.37,0,0,1-1.29-.17,13.49,13.49,0,0,1,1.3,1.75,1.42,1.42,0,0,1,0,1.19c-.11.18-.75.19-1.08.07a14.09,14.09,0,0,1-1.83-.91,14.18,14.18,0,0,1,.79,2.2,3.49,3.49,0,0,1-.3,1.28,3.17,3.17,0,0,1-1.17-.39,16.88,16.88,0,0,1-1.53-1.73,13.71,13.71,0,0,1-.22,2.3c-.24.86-.88.95-1.37.21a14.18,14.18,0,0,1-.92-1.91l-1.7,1.85Zm-66.18-34.39.71-3.75a7.53,7.53,0,0,1-1.41.58c-.35.07-.89.05-1.07-.17s-.08-.75.07-1.07a8.49,8.49,0,0,1,.92-1.34,23.29,23.29,0,0,1-2.34.21,1.08,1.08,0,0,1-.83-.5,1,1,0,0,1,.34-.91,18,18,0,0,1,1.79-1.24,19.81,19.81,0,0,1-2.41-.52c-.31-.1-.72-.52-.72-.79s.42-.68.73-.79a21.49,21.49,0,0,1,2.38-.53c-.66-.45-1.27-.81-1.81-1.26-.21-.17-.41-.62-.32-.81a1.12,1.12,0,0,1,.8-.53,22.67,22.67,0,0,1,2.39.18,11.35,11.35,0,0,1-1-1.42.76.76,0,0,1,.91-1.19,10.46,10.46,0,0,1,1.57.58l-.73-3.68c-3.55.82-6.58,5.11-6.65,9.34S650.15,372.44,653.92,373.48Zm32-.77c-.66-.55-1.33-1.31-1.49-1.21-1,.61-2.76.37-2.87,2.19a1.31,1.31,0,0,1-.51.77,1.59,1.59,0,0,1-2.27,0,1.92,1.92,0,0,1-.11-2.71,1.49,1.49,0,0,1,2.31-.14c.51.41,3.13-.23,3.38-.8a.93.93,0,0,0,0-.24c.08-.87.15-1.74.24-2.72a6.57,6.57,0,0,0-1.08,0c-1.07.17-2.11.49-3.18.58-3.26.27-4.51,3-4.85,5.22a2.08,2.08,0,0,0,.59,1.68,13.84,13.84,0,0,0,3,1.6,1.43,1.43,0,0,0,1.11-.31c1-.7,1.88-1.53,2.88-2.22C684,373.8,684.86,373.35,686,372.71Zm22.65-26.18c.54-1.24,1.47-2.35.4-3.82-.49-.66.35-2,1.2-2.29a2.09,2.09,0,0,1,2.32,1.23,1.77,1.77,0,0,1-1.16,2.29,3.57,3.57,0,0,0-2.07,2.67.91.91,0,0,0,.2.52c.49.7,1,1.38,1.53,2.1a.8.8,0,0,0,.32-.19c.84-1.16,1.69-2.31,2.51-3.49a5.45,5.45,0,0,0-1-7.33,1.46,1.46,0,0,0-1.06-.42,23.68,23.68,0,0,0-3.38,1.07c-.24.09-.4.61-.45,1-.16,1.13-.19,2.27-.38,3.39s-.5,2.15-.78,3.31ZM687,354.65a11,11,0,0,0-.89-.83c-.78-.57-1.58-1.09-2.37-1.64a5.6,5.6,0,0,0-7.45.3c-1,.85-.49,4.71.77,5.21.17.07.39,0,.58,0,1.07.11,2.14.16,3.19.35s2.22.56,3.38.86l.11-1.7c-2-1.07-2-1.07-3.81-.45a1.86,1.86,0,0,1-2.32-1.15,1.87,1.87,0,1,1,3.52-1.24c.16.55,0,1.19.84,1.39.62.16,1.18.49,1.79.69.13.05.36-.09.51-.19C685.56,355.74,686.23,355.23,687,354.65Zm5.36,23.9c-.85,1.18-1.67,2.33-2.49,3.49a5.58,5.58,0,0,0,.42,7.44c.86,1,4.64.37,5.13-.84.07-.17,0-.39,0-.59.1-1.06.14-2.14.33-3.19s.56-2.21.94-3.68c-.86.27-1.83.3-2,.65-.36.91-1.52,1.74-.47,3a1.76,1.76,0,0,1-.79,2.62,1.88,1.88,0,0,1-2.51-.94,1.91,1.91,0,0,1,1.15-2.53c.44-.17,1-.34,1.23-.69a10.78,10.78,0,0,0,.82-1.94ZM698,347c-.4-2.37-.27-4.92-1.79-7-1.22-1.66-3.12-2.11-5.1-2.18-.75,1.09-1.51,2.18-2.25,3.27a.28.28,0,0,0-.07.22,3.88,3.88,0,0,0,.42,1.2c.53.73,1.23,1.35,1.73,2.1.72,1.07,1.33,2.22,2,3.45.49-.54,1-.89,1.17-1.36.23-.75-1.1-2.46-2-2.72a1.85,1.85,0,0,1-1.24-2.46,1.86,1.86,0,1,1,3.37,1.55c-.3.51-.73.91-.31,1.59.33.53.49,1.17.79,1.73.07.13.42.12.64.16Zm12.42,32.8c-.44.62-1.17,1.22-1.06,1.56.33,1.08.36,2.44,2,2.69a1.69,1.69,0,0,1,1.09,2.39,1.87,1.87,0,0,1-2.49,1,1.75,1.75,0,0,1-.89-2.5c1-1.36-.13-2.27-.44-3.36,0-.11-.31-.19-.49-.21-.84-.14-1.68-.26-2.76-.41.26,1.47.51,3,.8,4.56a5.59,5.59,0,0,0,5.87,4.54,1.28,1.28,0,0,0,.9-.44,23.25,23.25,0,0,0,1.65-3c.12-.29-.14-.85-.37-1.18-.54-.73-1.24-1.34-1.74-2.09C711.8,382.28,711.2,381.11,710.44,379.82Zm8.3-19.69a.85.85,0,0,0,.41.11,48.34,48.34,0,0,0,5.38-1.09,5.39,5.39,0,0,0,3.3-5.48c-.24-1.7-2-2-3.28-2.57a.51.51,0,0,0-.23-.07,3.71,3.71,0,0,0-1.09.39c-.83.62-1.55,1.36-2.4,1.94s-2,1.22-3.26,1.94c.65.45,1.31,1.19,1.58,1.07,1-.44,2.44-.27,2.61-2a1.79,1.79,0,0,1,2.36-1.23,1.89,1.89,0,0,1,1.14,2.44c-.4,1-1.6,1.68-2.41,1-1.28-1-2.2-.12-3.24.28a.88.88,0,0,0-.43.6C719,358.37,718.89,359.21,718.74,360.13ZM719,369c.2.81.2,1.81.52,1.92.87.32,1.66,1.46,2.8.59a1.7,1.7,0,0,1,2.32,0,1.67,1.67,0,0,1,.39,2.27,2.58,2.58,0,0,1-1.69,1c-1,.06-1.52-.68-1.75-1.65a1.4,1.4,0,0,0-.61-.86,16.37,16.37,0,0,0-1.88-.8l-2.83,1.82,3.89,2.78a4.81,4.81,0,0,0,5.32.39c.92-.47,2.21-1.38,2.26-2.16.08-1.28-.7-2.61-1.18-3.89-.07-.17-.55-.23-.84-.26-1.09-.12-2.2-.13-3.28-.31S720.39,369.37,719,369Zm-53.18-3.14c-2,2-4,2.2-5.63.71a3.49,3.49,0,0,1-.2-5,4.69,4.69,0,0,1,2.38-1.22,3.69,3.69,0,0,1,3.46,1.66c1-1.73,1-1.81-.3-2.63a5.36,5.36,0,1,0-.4,9.28C666.84,367.86,666.91,367.61,665.85,365.89Zm71.72-3.77c2-2,4-2.27,5.67-.75a3.57,3.57,0,0,1,.2,5.06c-1.49,1.65-3.6,1.47-5.89-.54l-.78,1.53a5.27,5.27,0,0,0,7.88.28,5.36,5.36,0,0,0-.4-7.79c-2.39-2.06-6.08-1.45-7.44.67ZM718,331.89c-.69-2.59.16-4.54,2.18-5.15a3.57,3.57,0,0,1,4.46,2.21c.79,2.16-.28,3.8-3.22,5,.82,1.68,1,1.74,2.54.85a5.35,5.35,0,1,0-8.06-4.52C715.93,331.94,716.09,332.07,718,331.89ZM718,396c-1.93,0-2.07.11-2.09,1.76,0,3.05,3.05,6.18,6.44,5.27a5.37,5.37,0,0,0,4.22-4.5,5.27,5.27,0,0,0-2.5-5.31c-1.53-1-1.87-.85-2.62.82,2.88,1.07,4,2.74,3.25,4.9a3.55,3.55,0,0,1-4.44,2.27C718.57,400.65,717.06,399.28,718,396Zm-32.54-64c.9-.13,1.9.38,2.1-1a5.47,5.47,0,0,0-3.81-5.93,5.36,5.36,0,0,0-6.44,3,5.44,5.44,0,0,0,2.28,6.76c1.51.85,1.78.75,2.48-.93-2.86-1-4-2.72-3.24-4.89a3.61,3.61,0,0,1,4.44-2.29C685.35,327.32,686.19,329.27,685.44,332Zm19.84,13.11a18.42,18.42,0,0,1,.45-2.05c.89-2.83.06-5-2.42-6.59-1.42-.93-1.8-1.06-3.18,0a15,15,0,0,0-1.66,1.53c-.49.48-.47.94-.13,1.59a15.31,15.31,0,0,1,.92,2.8c.14.52.19,1.08.28,1.62,2.37-.54,2.31-.49.94-2.32a2.6,2.6,0,0,1-.32-2.07c.14-.44,1-.8,1.6-.89a1.57,1.57,0,0,1,1.73,1.34,1.71,1.71,0,0,1-.88,2c-.76.47-.81,1.23-.17,1.56Zm-23.13,48.93c-.5-.91-.82-1.81-2.16-1.15a5.49,5.49,0,0,0-2.94,6.31A5.35,5.35,0,0,0,687.56,398c0-1.8-.12-2-2-1.93.44,3.13-.4,4.86-2.56,5.28a3.6,3.6,0,0,1-4.26-2.6C678.18,396.57,679.36,394.94,682.15,394.05Zm38.46-26.54,2.46.52a5.59,5.59,0,0,0,6.69-3.4c.58-1.32-.46-2.07-1.13-2.9-1.21-1.48-1.3-1.44-3-.75a11.69,11.69,0,0,1-2,.48c-.65.13-1.3.2-2,.3l.56,1.79c.85.39,1.22-.08,1.65-.69a1.7,1.7,0,0,1,2.34-.51,1.86,1.86,0,0,1,.81,2.38,1.72,1.72,0,0,1-2.17,1,3.24,3.24,0,0,1-1.24-1c-.5-.56-1.22-.61-1.51,0C721.62,365.62,721.13,366.54,720.61,367.51ZM703.72,384a5.94,5.94,0,0,0-1,.32c-.25.11-.59.34-.61.54a1.85,1.85,0,0,0,.32.92c.06.12.27.15.4.24a1.86,1.86,0,1,1-2.89,1.9,1.84,1.84,0,0,1,1.05-2.07c.65-.4.69-1.21.13-1.5l-2.88-1.47c-.15.71-.34,1.56-.53,2.41a5.59,5.59,0,0,0,3.43,6.7,1.52,1.52,0,0,0,1.22,0,29.64,29.64,0,0,0,2.75-2.25,1,1,0,0,0,.22-.83C704.81,387.3,704.27,385.7,703.72,384Zm12.55-34.59a8.94,8.94,0,0,0,.29-1.72,1.84,1.84,0,0,1,1.12-2,1.5,1.5,0,0,1,2.1.48,2.84,2.84,0,0,1,.2,2.08,1.65,1.65,0,0,1-2.11.89c-.86-.21-1.44.27-1.23.94.31,1,.61,2,1,3.16a35.67,35.67,0,0,0,3.67-2.77c1.35-1.31,1.54-4.62.56-6.21-.08-.14-.18-.34-.29-.36a38.59,38.59,0,0,0-4-.43c-1.09,0-.7,1.17-1.13,1.72s-.62,1-.95,1.5-.79,1.07-1.22,1.64Zm-30.08,1.82,1-1.75a7.52,7.52,0,0,0-1.71-.3,1.89,1.89,0,0,1-2-1,1.54,1.54,0,0,1,.36-2.15,2.82,2.82,0,0,1,2-.36c.89.23,1.17,1.05,1.09,2a6.38,6.38,0,0,0,.27,1.61,14.29,14.29,0,0,1,2-.81,11.7,11.7,0,0,1,1.86-.12c-.54-.85-1.1-1.63-1.56-2.46-1.66-3-5-3-7.23-2.13a1.25,1.25,0,0,0-.7.73,32.29,32.29,0,0,0-.39,3.53,1.11,1.11,0,0,0,.52.83C683.12,349.68,684.61,350.41,686.19,351.23Zm30.1,27.68-3.75.83c.55.86,1.14,1.76,1.71,2.66a4.46,4.46,0,0,0,3.77,2.21c3.87.06,4.28-.47,4.38-4,0-.95-.22-1.55-1.31-1.73a5.32,5.32,0,0,1-1.77-.94c-.65-.42-1.26-.9-1.94-1.4a5.52,5.52,0,0,0-.31.67c-.13.45-.23.91-.34,1.36a6.92,6.92,0,0,0,1.48.24,1.89,1.89,0,1,1,.16,3.77,1.83,1.83,0,0,1-1.78-2.1C716.71,379.72,716.82,379.12,716.29,378.91ZM683,360.48l-2.6-.57a5.6,5.6,0,0,0-6.66,3.54,1.36,1.36,0,0,0,0,1.12,29.74,29.74,0,0,0,2.26,2.75.92.92,0,0,0,.83.21c1.62-.48,3.23-1,4.92-1.57l-.6-1.95a7.48,7.48,0,0,0-1.39,1,1.7,1.7,0,0,1-2.2.67,1.82,1.82,0,0,1,0-3.4c.78-.45,1.57-.07,2.19.67a4.51,4.51,0,0,0,1.15.77Zm2.88,14.41c-.71.45-1.46.94-2.24,1.41-2.34,1.44-2.87,3.57-2.36,6.1.36,1.77.72,2,3.08,2.23,1.78.16,2,0,2.66-1.62a9.6,9.6,0,0,1,1-1.63c.4-.59.85-1.14,1.3-1.73l-2.11-1.09a9.6,9.6,0,0,1-.21,1.81c-.2.65-.39,1.48-.88,1.8a2.17,2.17,0,0,1-1.94,0,2.46,2.46,0,0,1-.82-1.8c0-1.12,1.08-1.69,2.37-1.52a1.87,1.87,0,0,0,1.09-.34c.13-.08.13-.5.06-.72C686.52,376.86,686.19,376,685.83,374.89Zm17.86-23.09c.48-.28,1-.45,1.06-.65a24.11,24.11,0,0,0,0-4.73,2.62,2.62,0,0,0-2.81-2.24,2.85,2.85,0,0,0-3.2,2.12,7.7,7.7,0,0,0,.35,5.41,1.57,1.57,0,0,0,.68-.92c.08-.42,0-.88,0-1.31a1.82,1.82,0,0,1,1.88-1.91,1.78,1.78,0,0,1,2,1.75A22.12,22.12,0,0,1,703.69,351.8Zm4.42,23.09a43.52,43.52,0,0,0,3.68,3.5,2.83,2.83,0,0,0,3.92-.33,2.79,2.79,0,0,0,.51-3.88,22.68,22.68,0,0,0-3.07-3.13c-.67-.63-1-.24-1.15.48,2.11,1.87,2.46,2.92,1.37,4.06s-2.16.8-4.15-1.38Zm-3,4.45c-.12-.86-.18-1.66-.36-2.44-.06-.22-.46-.36-.71-.53-.13.23-.36.46-.39.7-.06.59.05,1.2,0,1.78a1.75,1.75,0,0,1-1.94,1.57,1.8,1.8,0,0,1-1.9-1.76c0-.47.05-1,0-1.43a3.12,3.12,0,0,0-.48-.87c-.22.22-.61.43-.62.67a23.43,23.43,0,0,0,0,4.27,2.87,2.87,0,0,0,3,2.52,3,3,0,0,0,3.14-2.41A20.05,20.05,0,0,0,705.14,379.34Zm-14.21-8.92c-1.23,1.12-2.41,2.07-3.42,3.18a3.16,3.16,0,0,0,.09,4.25,2.86,2.86,0,0,0,4.17.5,22.48,22.48,0,0,0,2.9-3c.61-.67.25-1-.46-1.24-1.66,2.16-2.8,2.59-4,1.53s-1-1.82,1.39-4.26Zm23-4.52c.26.5.42,1.07.59,1.07a25.65,25.65,0,0,0,5-.05,3.1,3.1,0,0,0-.05-5.89,22.64,22.64,0,0,0-4.73,0c-.22,0-.41.57-.74,1.07,3.23-.14,4.19.34,4.23,1.89S717.22,366.07,713.92,365.9Zm-1.81-8.83.67.37a40.18,40.18,0,0,0,3.29-3.37,2.89,2.89,0,0,0-.23-4,2.83,2.83,0,0,0-4.08-.44,28,28,0,0,0-3.25,3.44s0,.14,0,.27l.7.42a15.25,15.25,0,0,1,1.8-1.66,1.74,1.74,0,0,1,2.46.39,1.79,1.79,0,0,1,.13,2.41c-.3.42-.76.72-1.05,1.13A4.51,4.51,0,0,0,712.11,357.07Zm-17.56-3.15c.12-.46.38-.9.26-1.1a8.3,8.3,0,0,0-3.74-3.58,3.17,3.17,0,0,0-4,4.26,9.39,9.39,0,0,0,3.82,3.78c.7-.46.76-.84.09-1.3a4.84,4.84,0,0,1-1-1,1.74,1.74,0,0,1,.14-2.56,1.79,1.79,0,0,1,2.57-.2C693.26,352.63,693.74,353.17,694.55,353.92Zm-5,7.53-.26-.42a9.56,9.56,0,0,0-5.43,0,2.84,2.84,0,0,0-1.92,2.89c0,1.44.55,2.66,1.85,2.89A29.91,29.91,0,0,0,689,367c.14,0,.44-.43.39-.54a.89.89,0,0,0-.6-.51c-.59-.06-1.2.08-1.78,0a1.77,1.77,0,0,1-1.65-2A1.84,1.84,0,0,1,687.1,362c.47-.06,1,.07,1.43,0A4.17,4.17,0,0,0,689.54,361.45Zm-7.37-28.27a3,3,0,0,0,.09-6,3,3,0,1,0-.09,6Zm36.09,64.62a3,3,0,1,0,6,0,3,3,0,0,0-6,0Zm3-70.64a3,3,0,1,0,0,6,3,3,0,0,0,3-3.08A3,3,0,0,0,721.25,327.16Zm-55.56,36.78a3,3,0,1,0-3,3.06A3,3,0,0,0,665.69,363.94Zm78.08.07a3,3,0,0,0-2.9-3,3,3,0,1,0,2.9,3Zm-61.62,30.8a3,3,0,1,0,.13,6,3,3,0,0,0-.13-6Zm51.51-24.93c.3.27.51.5.75.69a2.94,2.94,0,0,1,.93,3.14,3.57,3.57,0,0,1-4.94,2.51c-.3-.12-.94-.11-1,0a1.58,1.58,0,0,0,0,1.17,1.73,1.73,0,0,0,1,.62,5.16,5.16,0,0,0,5.55-1.58,5.3,5.3,0,0,0,.87-5.83C736.05,368.88,735.37,368.72,733.66,369.88Zm-63.94-.18c-.71-.11-1.14-1.28-2.05-.38a5.42,5.42,0,0,0-.51,6.55,5.16,5.16,0,0,0,6.3,2,1.73,1.73,0,0,0,.77-1.46c-.13-.7-.77-.31-1.26-.15a3.7,3.7,0,0,1-4.13-1.09,3.6,3.6,0,0,1-.32-4A14.51,14.51,0,0,1,669.72,369.7Zm63.87-11.58c1.91,1.15,2.12,1.09,3-.61a5.28,5.28,0,0,0-.67-5.93,5.42,5.42,0,0,0-5.64-1.65c-.85.24-1.3.79-1.1,1.54s.92.38,1.46.2a3.58,3.58,0,0,1,3.85,5.8A4.75,4.75,0,0,1,733.59,358.12Zm-63.68.06a5,5,0,0,1-.77-.55,3.59,3.59,0,0,1-.49-4.59,3.54,3.54,0,0,1,4.32-1.33c.5.2,1.13.52,1.26-.16a1.78,1.78,0,0,0-.74-1.48,5.3,5.3,0,0,0-6.51,2.31c-1.23,2.09-.74,5.43,1.26,6.68Zm64.75,35.45L735,395l-1.4.2-.26,1.24-1.66-.47-1.48,2.92a7,7,0,0,0,6.05-6.08c.52-3.46-1.59-7.45-4.49-8.52l1.06,4.5h1.91l-.17,1.17,1.22.8-.76,1,1,1.22Zm-2.93-49.81A8.48,8.48,0,0,0,736,334.1c-.81-2.69-3.67-5.11-5.78-4.86l1.45,2.82,1.64-.49.27,1.26L735,333l-.29,1.34L736,335l-1,1.21.79,1-1.25.81.22,1.14-2,.11Zm-32,51.2-.31-.34a20.28,20.28,0,0,0-2,1.94,3.74,3.74,0,0,1-3.92,1.36c-1.71-.46-2.44-1.74-2.76-3.43l-1.47.94a5.18,5.18,0,0,0,5.33,4.4A5.26,5.26,0,0,0,699.7,395Zm-8.94-61.65c.48-2.11,1.47-3.22,3.06-3.5a3.7,3.7,0,0,1,3.7,1.72c.6,1,.86,1.14,2.19,1.38a5.13,5.13,0,0,0-4.06-4.72,5.27,5.27,0,0,0-5.72,2.31C688.88,332.18,688.93,332.39,690.76,333.37Zm13.08-.4.32.31a17.85,17.85,0,0,0,1.9-1.89,3.51,3.51,0,0,1,5-.9,15.07,15.07,0,0,1,2.14,2.88c.28-.42,1-1,.93-1.53-.37-2.27-3-4-5.56-3.72A5.09,5.09,0,0,0,703.84,333Zm0,61.56a5.17,5.17,0,0,0,4,5.18,5.28,5.28,0,0,0,5.86-2.47c.91-1.53.79-1.85-1-2.55-.07.27-.12.55-.2.81a3.5,3.5,0,0,1-3.11,2.61,3.65,3.65,0,0,1-3.46-1.72A14.48,14.48,0,0,0,703.81,394.53Zm-21.89-6.11a5,5,0,0,0,3.38,6.82c2.52.7,5.42-.71,6-3a2.24,2.24,0,0,0-2.31.45,3.53,3.53,0,0,1-5.78-1.59A24.18,24.18,0,0,0,681.92,388.42Zm0-48.86c.45-.95,1-1.88,1.34-2.86a3.59,3.59,0,0,1,5.8-1.44,2.11,2.11,0,0,0,2.3.43,5.07,5.07,0,0,0-6.46-2.82A4.9,4.9,0,0,0,681.94,339.56Zm30.19-3.84c1.43.19,1.43.19,2.4-.59a3.62,3.62,0,0,1,5.76,1.86,21.53,21.53,0,0,0,1.42,2.86,5.32,5.32,0,0,0-3.29-7C715.8,332,712.81,333.33,712.13,335.72ZM712,392.34a4.93,4.93,0,0,0,4.07,3,5.16,5.16,0,0,0,5.3-2.51,4.32,4.32,0,0,0,.19-4.51c-.5,1.06-1,2-1.38,3a3.53,3.53,0,0,1-5.76,1.42C713.63,391.92,713,392.08,712,392.34ZM675,382.1a5,5,0,0,0-1.07,5.45,5.38,5.38,0,0,0,4.91,3.41c1.82,0,2-.24,1.79-2.12-1.68.58-3.26.51-4.47-.94a3.61,3.61,0,0,1-.12-4.59Zm47.7,6.72c0,2,.38,2.43,2.12,2.08a7.8,7.8,0,0,0,3.41-1.54,5,5,0,0,0,.12-7.23l-1,1.11c1,1.56,1.14,3.08,0,4.54S724.56,389.42,722.74,388.82Zm-41.85-49.56c-.27-.91.3-1.85-.92-2.14a5.44,5.44,0,0,0-5.63,2.54,5,5,0,0,0,.6,6.12l1.23-.94c-1-1.69-1.23-3.29,0-4.77S679,338.47,680.89,339.26Zm41.92-1.92-.13,1.87c1.82-.72,3.36-.56,4.55.79s1.1,3.14.14,4.75l1.06,1.17a5.13,5.13,0,0,0,.63-6.36C727.79,337.46,725.52,336.63,722.81,337.34ZM669.94,359a5.15,5.15,0,0,0-3.65,5.2c.15,2.38,1.75,4.4,3.67,4.64.42-1.27.42-1.27-.55-2.06a3.49,3.49,0,0,1-.09-5.51A1.64,1.64,0,0,0,669.94,359Zm56.86-14.77a2.94,2.94,0,0,0-4-4.23c-.39.33-.8,1.25-.64,1.47a8.18,8.18,0,0,0,2.22,2.05A9.4,9.4,0,0,0,726.8,344.25Zm0,39.44c-1.41.59-2.95.6-4,2-.68.88-1,1.57,0,2.3a3,3,0,0,0,3.92-.24A2.91,2.91,0,0,0,726.79,383.69Zm6.69-14.8c2-.28,3.67-2.42,3.73-4.75a5,5,0,0,0-3.66-5.06c-.38,1.34-.38,1.34.59,2.14a3.48,3.48,0,0,1,0,5.49A1.63,1.63,0,0,0,733.48,368.89ZM676,342.43c0,1.52.5,1.73,2,1.47a5.47,5.47,0,0,0,2.78-1.64c.79-.68.95-1.57.12-2.21a2.83,2.83,0,0,0-3.14-.38A2.87,2.87,0,0,0,676,342.43Zm0,43a3,3,0,0,0,1.74,2.87,2.88,2.88,0,0,0,3.06-.29,1.28,1.28,0,0,0-.06-2.29c-.31-.22-.46-.71-.78-.84-1.06-.43-2.17-.76-3.26-1.08-.07,0-.29.26-.35.44C676.12,384.68,676,385.15,675.93,385.43Zm21-47.27c.51-.12.83-.11,1-.26a5.56,5.56,0,0,0,.66-.84c1.44-1.7,3.26-2.19,4.91-1.07,1.86,1.28,3.31,2.9,3,5.43-.12.91-.27,1.81-.43,2.7s-.39,2-.59,2.95l.47.11c.66-2.23,1.6-4.42,1.51-6.81s-3.06-5.6-5.47-6.09a1.09,1.09,0,0,0-.57,0A9.12,9.12,0,0,0,696.92,338.16Zm30.48,21.2c1.11,1.43,2.05,2.5,2.82,3.69a2.1,2.1,0,0,1,.1,1.67,6.21,6.21,0,0,1-7.42,3.91c-1.21-.26-2.42-.54-3.63-.78a2.36,2.36,0,0,0-.69.08l0,.41c2.16.47,4.31,1,6.49,1.38a3.4,3.4,0,0,0,1.62-.32c2.47-.86,3.64-3,4.77-5.1a1,1,0,0,0-.12-.9q-1.35-1.87-2.82-3.68C728.31,359.51,727.89,359.51,727.4,359.36Zm-11-4.68.12.29c.15,0,.32,0,.44,0a33.1,33.1,0,0,0,4.7-2.83,6.28,6.28,0,0,0,1.86-3.06,9.35,9.35,0,0,0,0-3.54c-.31-2.63-.6-2.9-3.18-3.3a18.21,18.21,0,0,0-2.86-.13c-.22,0-.45.23-.67.35l.1.34c.37,0,.74,0,1.11,0,1,.09,2,.16,3,.31a2,2,0,0,1,1.68,1.63c1,3.29.1,5.79-2.75,7.65ZM698,380.93l-.37-.1a4.85,4.85,0,0,0-.34.78c-.38,1.34-.72,2.7-1.1,4a4.51,4.51,0,0,0,.89,4.5,30,30,0,0,0,3.9,3.29,1.45,1.45,0,0,0,1.32.1c1.31-.89,2.54-1.89,3.77-2.9.16-.12.11-.51.15-.77a5.18,5.18,0,0,0-.73.4c-.86.7-1.68,1.45-2.57,2.12a1.93,1.93,0,0,1-2.32,0c-3.08-1.74-4.15-4-3.43-7.49C697.43,383.6,697.7,382.27,698,380.93Zm25.55-1.76-.47-.06L723,380c-.13,1.18-.21,2.37-.43,3.54a1.8,1.8,0,0,1-.81,1.09,6.23,6.23,0,0,1-8-1.92c-.75-1.12-1.47-2.28-2.22-3.41a3.09,3.09,0,0,0-.58-.56l-.24.21c.75,1.34,1.54,2.67,2.26,4a4.9,4.9,0,0,0,4.26,2.88,33.73,33.73,0,0,0,5.07-.55,1,1,0,0,0,.64-.47A9.47,9.47,0,0,0,723.53,379.17Zm-38.76-18.95.11-.4a7.94,7.94,0,0,0-.81-.31c-1.27-.35-2.56-.64-3.82-1a4.55,4.55,0,0,0-4.72.88,30.77,30.77,0,0,0-3.33,4,1.11,1.11,0,0,0-.12,1c.94,1.38,1.94,2.72,3,4,.13.17.58.09.91.13-1-1.38-2-2.53-2.77-3.73a1.54,1.54,0,0,1-.19-1.23c.92-2.33,3.45-5.2,7.12-4.32C681.66,359.62,683.22,359.9,684.77,360.22Zm1.88,25.3-.18-.2c-1.26-.12-2.54-.16-3.78-.38a2.44,2.44,0,0,1-1.49-.85c-1.29-1.84-1-5.63.76-7.13a49.42,49.42,0,0,1,4.48-3.17l.79-.56-.13-.31a3,3,0,0,0-.81.19c-1.34.78-2.69,1.56-4,2.42a5,5,0,0,0-1.53,1.44c-1.55,2.51-1.11,5.13-.25,7.73a1,1,0,0,0,.69.56q2.28.4,4.59.66C686.06,386,686.37,385.66,686.65,385.52Zm5.84-36.19.29-.19a7.3,7.3,0,0,0-.41-.9c-.63-1.11-1.33-2.19-1.91-3.33a4.67,4.67,0,0,0-4.07-2.76,27.24,27.24,0,0,0-5.07.51,1.31,1.31,0,0,0-.87.83c-.28,1.56-.45,3.14-.6,4.72,0,.2.29.42.51.7.18-1.59.28-3,.53-4.33a2,2,0,0,1,.84-1.22,6.28,6.28,0,0,1,7.94,1.82c.75,1.08,1.43,2.21,2.16,3.31A10.59,10.59,0,0,0,692.49,349.33Zm41.13,21.19-2.81,3.42c-.3.36-.57.74-.86,1.11a4.72,4.72,0,0,0,1.23.82,3.18,3.18,0,0,0,3.48-1.72A3.05,3.05,0,0,0,733.62,370.52Zm-63.42-.06a2.78,2.78,0,0,0-1.15,4,3,3,0,0,0,4.05,1.07c.59-.38.8-.95.15-1.31A6.53,6.53,0,0,1,670.2,370.46Zm-.09-12.9a6.54,6.54,0,0,1,2.81-3.7c.27-.16.66-.54.61-.73a1.41,1.41,0,0,0-.71-.81,2.92,2.92,0,0,0-3.76,1.18C668.22,354.87,668.58,356.42,670.11,357.56Zm67.19,18a5.2,5.2,0,0,0,5.1-2,4.47,4.47,0,0,0,1-4.13c-1.2.06-1.78.55-1.88,1.67a2,2,0,0,1-.67,1.35c-1,.67-2,1.18-3.28,1.86Zm-24.72-27.1a4,4,0,0,0,.76-.16c2.06-1.37,3.46-4.77,2.76-7.05a12.58,12.58,0,0,0-1.53-3.23c-.43-.65-1.17-1.45-1.83-1.51a7.72,7.72,0,0,0-5.32,1.7,2.82,2.82,0,0,0,1.56-.16c3.32-1.36,4.21-1.18,5.65,1.59a5.56,5.56,0,0,1-.21,6.12C713.85,346.6,713.3,347.42,712.58,348.48Zm-29.75,18.85-.09-.51c-2,.22-4.14-.05-5.85,1.49a8.88,8.88,0,0,0-2.7,6.41c0,.32.08.82.31,1,1.43.9,2.91,1.74,4.4,2.54.14.08.47-.19.91-.38a16.34,16.34,0,0,1-2.67-1.13c-.79-.54-2-1.29-2-2-.11-2.89,1.1-6.19,4.8-6.81C680.92,367.74,681.87,367.52,682.83,367.33Zm50.51-9.77a2.87,2.87,0,0,0,1.09-4,3,3,0,0,0-3.84-1.21c-.82.4-1,1-.27,1.41A6.27,6.27,0,0,1,733.34,357.56ZM668.71,400c-1.87,4.69,1.64,11,7,13,3.92,1.46,10.33.09,11.37-2.64-4.13,3.08-8.43,3.84-12.85,1.32S668.25,405.05,668.71,400Zm49.13,2.7-1.15-1c-2.24.93-3.88.78-4.93-.7-.73-1-1.35-.73-2.16-.4C710.57,404.48,715.87,404.9,717.84,402.72Zm-8.32-75.34c.93.4,1.59.5,2.29-.44a3,3,0,0,1,3.75-1,1.55,1.55,0,0,0,2.22-.73C715,322.84,711.06,323.88,709.52,327.38Zm-22.44-10c-2.27-3-8.84-4.69-14-1.08-3.74,2.64-6.16,8.84-4.21,12-.61-5.29.87-9.41,5.26-12S682.94,314.47,687.08,317.39Zm29.32,93.22c3.12,3.71,9.86,4.08,14.14.95,3.73-2.74,6-8.69,4.08-11.88.59,5.31-.89,9.44-5.35,12S720.51,413.48,716.4,410.61Zm13.11-21.55c-.8.62-1.24,1.15-.71,2.22a3,3,0,0,1-1,3.75c-1,.72-.8,1.39-.46,2.26A5.16,5.16,0,0,0,729.51,389.06ZM734.78,328c1.72-4.22-1.17-10.25-5.87-12.55-4.25-2.08-10.67-1.14-12.49,2,4.09-2.9,8.43-3.7,12.86-1.13S735.23,323,734.78,328Zm-5.21,10.92a4.94,4.94,0,0,0,.91-5,4.82,4.82,0,0,0-3.23-3.26l-.32,1.61c1.88,1.34,2.57,2.8,1.86,4.5C728.34,337.81,728.69,338.35,729.57,338.91Zm19.81,14.47c4.6,2.11,7.47,5.49,7.45,10.66s-2.86,8.46-7.42,10.55c4.39-.53,8.16-5.93,8-11.13C757.21,358.75,753.23,353.6,749.38,353.38ZM674,389.06c-2.48,2.52-1.26,7.09,2.42,8.3-.09-.72.06-1.53-.27-1.87-1.91-1.94-2.12-2.65-1.12-5.34ZM717.49,375l-.26.24c.43,1,1.49,1.4,2.26,2.07a4.84,4.84,0,0,0,5,.94,23,23,0,0,0,3.71-1.86,1.89,1.89,0,0,0,1.07-2.09c-.35-1.42-.79-2.82-1.25-4.21-.06-.19-.47-.26-.71-.38a1.94,1.94,0,0,0,0,.79,11.11,11.11,0,0,1,.85,2.08c.13.93.35,2.25-.14,2.8-1.82,2.05-5.22,3.38-8.19,1.24C719.08,376.05,718.28,375.53,717.49,375Zm-51.38.5c-.07-.93-.28-1.54-1.47-1.68a3.11,3.11,0,0,1-2.82-2.85c-.15-1.17-.77-1.4-1.71-1.45A5.13,5.13,0,0,0,666.11,375.49Zm26.29,24.68c-1.44,1.89-2.9,2.62-4.49,1.91-1.12-.49-1.64-.08-2.22.69,2.88,2.73,7.81.59,8.15-2.26Zm-38.29-25.64c-4.67-2-7.45-5.44-7.45-10.56s2.83-8.49,7.41-10.57c-4.13.23-8.22,6-8,11S650.52,374.72,654.11,374.53Zm12-22.06c-3.35-.87-7,2.79-6,6a1.53,1.53,0,0,0,1.67-1.54,3.08,3.08,0,0,1,2.76-2.77C665.72,354,666.07,353.52,666.12,352.47Zm77.25,6c.64-3.67-2.75-7-6-5.94.31,1.32.31,1.29,1.54,1.58a3.25,3.25,0,0,1,2.76,2.79C741.78,358.15,742.41,358.4,743.37,358.49ZM675,337.83c-.85-2.39-.76-3.85.62-4.86,1-.73.92-1.39.48-2.28A5.13,5.13,0,0,0,674,339Zm23.39,7.51c.25-.36.38-.47.4-.6a6.12,6.12,0,0,0-3.73-7.24c-4.85-1.91-5.3-1.59-7.47,3.17a1.22,1.22,0,0,0-.13.45,4.1,4.1,0,0,0,.1.69l.32.06a7.74,7.74,0,0,1,.37-.88c.58-1,1.12-2.11,1.79-3.09a1.76,1.76,0,0,1,1.2-.62,6.21,6.21,0,0,1,6.58,5.07C698,343.26,698.21,344.18,698.43,345.34Zm-4.49-18c-1.47-3.49-6-4.61-8.21-2.1a1.54,1.54,0,0,0,2.16.65,3,3,0,0,1,3.77,1C692.36,327.86,693,327.84,693.94,327.36Zm26.8,33.25,0,.39c.65,0,1.29,0,1.94,0,2.2-.08,4.18-.76,5.16-2.86a29.48,29.48,0,0,0,1.46-4.76,1.07,1.07,0,0,0-.21-1c-1.47-.93-3-1.8-4.49-2.65-.12-.06-.38.14-.58.21a2.63,2.63,0,0,0,.5.5c1.11.62,2.25,1.18,3.32,1.85a1.7,1.7,0,0,1,.66,1.07,6.33,6.33,0,0,1-4.81,6.68Zm-15.63,22.32-.38,0c-.36,1.21.11,2.39.25,3.58a4.39,4.39,0,0,0,2,3.15,10.19,10.19,0,0,0,5.37,1.81c.4,0,1-.1,1.18-.37.88-1.36,1.66-2.79,2.42-4.23.09-.17-.13-.51-.2-.76-.82,1.43-1.48,2.69-2.27,3.87a1.9,1.9,0,0,1-1.29.7,6.27,6.27,0,0,1-6.6-5.22C705.43,384.63,705.27,383.78,705.11,382.93Zm-14.37-3.22-.43-.36c-.64.81-1.27,1.65-1.94,2.44a4.9,4.9,0,0,0-1.06,4.27,9.85,9.85,0,0,0,2.54,4.95,1.45,1.45,0,0,0,1.11.48c1.55-.34,3.08-.77,4.59-1.22.21-.06.3-.47.5-.8-1.55.46-2.82.91-4.12,1.2a2.11,2.11,0,0,1-1.56-.3,6.29,6.29,0,0,1-1.35-8.11C689.58,381.4,690.17,380.56,690.74,379.71ZM686,353l.24-.27c-.48-1.07-1.62-1.5-2.45-2.21a4.19,4.19,0,0,0-4.16-.89,37.68,37.68,0,0,0-4.76,2.37c-.28.15-.66.6-.61.82.4,1.77.89,3.52,1.39,5.26,0,.09.44.08.51.09-.39-1.55-.78-2.95-1.06-4.38a1.71,1.71,0,0,1,.34-1.2,6.28,6.28,0,0,1,8.11-1.27C684.34,351.84,685.15,352.41,686,353Zm21.87,52.37-1.11-.44.95-1.77-3.46-3.08a7.89,7.89,0,0,0,5.1,8.07v-1.46l-1.48.1Zm-36-61.47c-.22-.81-.45-1.57-.63-2.33s-.33-1.6-.46-2.22l-2-.11.18-1.14-1.22-.85c.29-.36.58-.73.88-1.09l-1.31-.77C666.54,338.18,668.62,342.25,671.82,343.87Zm-4.57,48.77,1.31-.78-.85-1.19L669,390l-.18-1.22h1.91l1.09-4.65A8.52,8.52,0,0,0,667.25,392.64Zm28.41-70,1.14.45-1,1.68,3.43,3.17a8.28,8.28,0,0,0-5.09-8.07v1.5l1.41-.2Zm-19.21,72.22c1.48-1,2.77-1.86,4-2.74a2.54,2.54,0,0,0,.4-.46,1.87,1.87,0,0,0-.54-.25c-1.58-.13-3.16-.24-4.92-.37A2.58,2.58,0,0,0,676.45,394.84Zm-.75-57.49a6.82,6.82,0,0,1,4.66-.79c.17,0,.36-.14.55-.22-.09-.15-.16-.39-.28-.42a6.34,6.34,0,0,1-3.76-3C675,334,674.57,335.55,675.7,337.35Zm-10.44,35.88,2.22-5.23a18.33,18.33,0,0,1-2.34,1.37,20.68,20.68,0,0,1-2.73.73A2.68,2.68,0,0,0,665.26,373.23Zm70.83-5.48c0,.56-.09.86,0,1a6.9,6.9,0,0,1,1.7,4,1,1,0,0,0,.7.58,2.8,2.8,0,0,0,2.62-2.71c0-.25-.37-.66-.58-.67A6.68,6.68,0,0,1,736.09,367.75Zm1.8-12.93a12.66,12.66,0,0,1-.33,1.84,11.74,11.74,0,0,1-.8,1.73c-.24.45-.52.88-.78,1.33a22.3,22.3,0,0,0,2.52-1.19,16.48,16.48,0,0,1,2.6-.65C741.1,355.75,739.88,354.59,737.89,354.82ZM689.42,371c-.64-.43-1.39-.68-1.63-1.17s0-1.28.05-1.92c-2.09.11-2.64.39-2.91,1.53a2.57,2.57,0,0,0,1.22,2.77C687.72,373,688.48,371.6,689.42,371Zm54.32-22.49c-2.41-2.16-7.71-2.29-9.38-.31l4.3,1.3,1-1.62,1,.75,1.15-.73.68,1.32Zm-48.89,27.95c-2.1,1.73-1.63,2.33-1.16,3.25a2.53,2.53,0,0,0,2.91,1c1.15-.43,1.42-1.11,1.15-2.94C696.13,378.55,695.29,378.16,694.85,376.42Zm-32.23-28c.36-.21,1-.67,1-.59a10.62,10.62,0,0,1,1.23,1.59l4.3-1.32c-2.89-2.18-7.83-1.49-9.43.36l1.22.65.62-1.27ZM712,327.75l3.27,4.3.69-5.34A2.68,2.68,0,0,0,712,327.75Zm15.23,67A2.61,2.61,0,0,0,728,391l-5.6.7c.84.46,1.62.84,2.35,1.32S726.27,394.1,727.18,394.78ZM712,400.33c.45,1.35,2.54,1.95,4.06.74a19.16,19.16,0,0,1-.7-2.51,20,20,0,0,1,0-2.68,10.11,10.11,0,0,0-1.44,2C713.4,398.68,712.77,399.4,712,400.33ZM662.4,357.94a15.23,15.23,0,0,1,1.92.36,11.74,11.74,0,0,1,1.73.8c.46.23.9.5,1.34.76l-2.1-5.09C663.62,354.59,662.3,355.85,662.4,357.94ZM728,337a2.63,2.63,0,0,0-.88-3.84c-.87.67-1.6,1.28-2.39,1.81s-1.49.86-2.29,1.32Zm-40.4,64.25a2.62,2.62,0,0,0,3.84-.91c-.65-.84-1.29-1.56-1.82-2.35s-.85-1.51-1.33-2.38Zm10.22-51c.1-2.13-.25-2.81-1.53-3.1a2.71,2.71,0,0,0-2.73,1.33c-.51,1.12-.19,1.86,1.34,3C695.27,349.8,696.11,349.41,697.81,350.26Zm7.78,27.45c.13,2.3.48,2.9,1.74,3.12a2.62,2.62,0,0,0,2.63-1.45c.44-1,.1-1.77-1.34-2.91C708.16,378.2,707.39,378.53,705.59,377.71Zm9.79-17.57c2.45-.19,3-.49,3.17-1.68a2.58,2.58,0,0,0-1.51-2.73c-1.06-.39-1.79,0-2.74,1.38C716,357.58,716.31,358.51,715.38,360.14Zm-6.74-8.58c2-1.75,1.65-2.18,1.15-3.27a2.56,2.56,0,0,0-2.68-1.11c-1.2.32-1.52,1-1.49,3.08C707.41,349.46,708.14,349.75,708.64,351.56Zm-17.15-23.84a2.55,2.55,0,0,0-3.9-1l.71,5.61a24.49,24.49,0,0,1,1.31-2.37C690.15,329.21,690.82,328.52,691.49,327.72Zm-3.75,32.34a5.05,5.05,0,0,1,.06-2c.23-.5.91-.79,1.39-1.17-1.64-1.7-2-1.55-3.17-1a2.57,2.57,0,0,0-1.08,2.7C685.26,359.81,685.91,360.12,687.74,360.06Zm13.5,36.71a4.73,4.73,0,0,0-.19.74c-.14,1.34-.26,2.69-.39,4a9.86,9.86,0,0,1-2.8,6.06c-4.05,4.19-10.52,3.67-14.1-1.13l-.72-.93-.25.19a6.36,6.36,0,0,0,.28.59,9.48,9.48,0,0,0,14.09,2.43C701,405.66,701.43,401.31,701.24,396.77Zm13-25.81c1.42,1.49,2,1.71,3.11,1.11a2.61,2.61,0,0,0,1.14-2.8c-.32-1.16-1-1.44-3.09-1.35C716.31,369.46,716,370.22,714.26,371Zm16.26,8.94-.23.47a57,57,0,0,0,6.55,2.46c6.63,1.6,13.83-3.85,11.65-12.16a13.34,13.34,0,0,0-1.06-2.23l-.27.13c.27.89.56,1.78.81,2.67a8.88,8.88,0,0,1-6.13,11.1,11.5,11.5,0,0,1-8.58-1.07ZM683,322.43l.69-.91a9.18,9.18,0,0,1,15.51.6c1.46,2.33,1.71,4.94,1.79,7.59a14.75,14.75,0,0,0,.16,1.49l.3,0c-.1-1.35-.14-2.71-.29-4.05-.44-3.87-2.09-7-5.63-8.94C691,315.68,684.67,317.74,683,322.43Zm-12.56,38.8a2.89,2.89,0,0,0-1.85,2.85,2.73,2.73,0,0,0,1.83,2.63C672,364.82,672,363.32,670.48,361.23Zm26.57,34.46a6.09,6.09,0,0,1-5.21-2.43,2.88,2.88,0,1,0,5.21,2.43Zm-40.65-36.3-.46-1.05a9.2,9.2,0,0,1,8.79-13.12c2.57,0,4.79,1.11,7,2.24l1.32.67.2-.46a59.79,59.79,0,0,0-6.46-2.5,9.58,9.58,0,0,0-8.78,1.94C654.31,350.06,653.43,356.13,656.4,359.39Zm50,36.34a2.89,2.89,0,0,0,4.21,1.36,2.67,2.67,0,0,0,1-3.81A6.11,6.11,0,0,1,706.41,395.73ZM673,380c-1.71.74-3.37,1.6-5.13,2.19a9.32,9.32,0,0,1-10.33-2.4c-2.89-3-3-6.61-1.48-10.35.12-.29.21-.59.42-1.19-.38.3-.5.36-.55.45-3.14,5.83-.35,12.17,5.42,13.95C665.74,384,669.44,382.2,673,380Zm24.07-47.81A2.9,2.9,0,0,0,693,330.8a2.72,2.72,0,0,0-1.17,3.77C694.47,332.51,694.47,332.51,697.06,332.18Zm36,34.55a2.82,2.82,0,0,0,1.8-2.78,2.78,2.78,0,0,0-1.76-2.68C731.42,363.1,731.41,364.69,733,366.73Zm-26.59-34.65a16.75,16.75,0,0,1,2.89.8,15.46,15.46,0,0,1,2.38,1.7,2.81,2.81,0,0,0-1.15-3.74A3,3,0,0,0,706.44,332.08Zm14.23,73.66-.22-.19-.67.87a9.85,9.85,0,0,1-4.59,3.49c-6,2.06-11.8-2.27-12.46-8.58-.15-1.48-.29-3-.43-4.44a16.34,16.34,0,0,0-.12,3,12,12,0,0,0,2.75,7.58A9.46,9.46,0,0,0,720.67,405.74Zm-.21-83.35a9,9,0,0,0-11.72-4.6c-4.45,1.92-6.18,5.65-6.54,10.2-.09,1.05,0,2.11,0,3.16.3-1.95.34-3.92.78-5.81.94-4,3.41-6.79,7.55-7.61,3.93-.79,7,.83,9.37,4C720.06,321.94,720.27,322.16,720.46,322.39Zm26.67,37.32a9.35,9.35,0,0,0-3.58-13.82c-4.85-2.25-9.07-.44-13.15,2.1a7.07,7.07,0,0,0,1.26-.47c2-.75,3.89-1.83,5.92-2.16a9.06,9.06,0,0,1,10.67,10.22A39.56,39.56,0,0,1,747.13,359.71Zm-18.71-32.84c4.62.59,8.22,2.54,9.27,7.41s-1.27,8.28-5,11a10.41,10.41,0,0,0,5.47-11.37C737.11,329.62,732.72,326.32,728.42,326.87Zm-14,78.92-.41,1.77-1.14-.43-.87,1.14-1.05-1-1,1.16c3,1,6.35-.09,7.8-2.46Zm-43.63-23.07c-4.19,1.78-6.59,7.49-5.16,12,1.28,4,5.85,7.14,9.59,6.34-4.65-.53-8.28-2.48-9.37-7.3S667,385.49,670.74,382.72Zm73.51-33.83-.44,1.39,1.35.42-.52,1.34.94.68-1.2,1.34,1.78,2.75A6.89,6.89,0,0,0,744.25,348.89Zm-11.74,31c4.79,3.26,10.13,2.8,13.34-.85,2.27-2.57,2.62-7.65.61-9.49.14.58.2.89.3,1.2,1.3,3.91.13,7.57-3.17,9.66a9,9,0,0,1-8.6.56C734.15,380.66,733.33,380.28,732.51,379.92Zm-59.19-50.8c-2.93.25-5.69,2.94-5.84,5.6l1.4-.3-.44-1.33,1.52-.32c-.15-1.42-.06-1.46,1.84-.68Zm-14.09,19.74a6.81,6.81,0,0,0-1.88,7.9l1.84-2.84-.54.38a4,4,0,0,1-.71-1.46c0-.28.63-.6.89-.82l-.54-1.28,1.41-.47Zm26.49-26.95,3.41.2c.11-2,.21-2.07,1.48-1.29.33-.37.61-1,1-1s.85.4,1.29.64l-.36.4,1.06-1.24A7,7,0,0,0,685.72,321.91Zm-13.94,73.95-1.45.6-.51-1.29L668.5,395l.37-1.42-1.43-.26c.39,2.88,3.28,5.6,5.85,5.53Zm12.57,10c1.7,3.47,6.5,4.93,10.26,3.32a9.86,9.86,0,0,0,5.53-10.49c-.23,4.07-1.19,7.83-5.18,9.82C690.79,410.57,687.34,409.07,684.35,405.84Zm18.92-7.14c-.56,5.29,2.63,10,7.29,11,3.35.69,7.81-1.27,8.66-4-2.88,3.32-6.33,4.82-10.47,2.92S703.57,402.86,703.27,398.7Zm25.05,2.37c3.57.84,8.13-2.16,9.49-6.07,1.24-3.57-.07-8.86-2.58-10.14,2.55,3.16,3.57,6.6,2,10.42S732.28,400.63,728.32,401.07Zm-43.83-78.89c.29-.31.57-.62.87-.92a7.85,7.85,0,0,1,7.13-2.57,8.78,8.78,0,0,1,7.28,7.55c.16,1,.27,2.08.4,3.11.41-5.65-2.34-9.52-6.36-10.82C690.15,317.35,685.85,319,684.49,322.18Zm62.08,35.89.35,0a8.33,8.33,0,0,0,.36-.81,8.45,8.45,0,0,0-3.18-9.94c-3.39-2.24-8.75-1.94-11.66.73,3.67-1.89,7.43-3,11.19-.49S748,353.85,746.57,358.07Zm-17.22-29.95a4.4,4.4,0,0,1,1,.27c1.44.74,3.1,1.24,4.24,2.3,3.48,3.25,3.15,8.79-.57,12.23-.92.85-2,1.57-3,2.43,4.09-1.31,7-6.26,6.27-10.65C736.63,331,733,327.82,729.35,328.12Zm-54.2-1.22c-3.42-.68-7.56,1.83-9.2,5.31-1.55,3.27-.66,8.74,1.66,10.1-2.06-3.37-2.87-6.68-1.11-10.16S671.45,327.34,675.15,326.9Zm-18.42,43a7.93,7.93,0,0,0,.26,8.28c2.62,4.12,8.42,5.61,14.06,1.79-3.69,1.87-7.46,3-11.22.45S655.47,374.08,656.73,369.87Zm46.6-40.61c.1-.87.18-1.74.31-2.6.56-3.74,2.45-6.51,6.14-7.69,3.51-1.13,6.41.11,8.8,2.79a2.79,2.79,0,0,0,.57.37,7.91,7.91,0,0,0-7.65-4C706.68,318.55,702.74,323,703.33,329.26Zm-46.45,28.81c-.13-.51-.27-1-.41-1.55a8,8,0,0,1,3.49-9,9.11,9.11,0,0,1,8.5-.52l1.64.65c-4-2.7-9.3-2.16-12.24,1C655.4,351.29,655,355.76,656.88,358.07Zm14.79,25.14a9.43,9.43,0,0,0-5.13,11.15c1.06,3.32,4.86,6.16,7.9,5.54-4.35-.87-7.27-2.94-7.8-7.27S668.37,385.5,671.67,383.21ZM674.11,328c-3.55-.29-7,2.67-7.82,6.56s1.46,8.14,4.47,9.49c-3.07-2.33-4.71-5.36-4-9.22C667.4,330.82,670.27,328.88,674.11,328Zm27.7,33.19a2.76,2.76,0,0,0-.2,5.52,2.76,2.76,0,1,0,.2-5.52ZM729.37,400c3.22.32,6.67-2.39,7.66-5.89s-.66-8.16-3.65-9.69c2.74,2.48,4.18,5.47,3.32,9.16S733,399.13,729.37,400Zm-37.3-28.62,1.35,1.44c1.19-1.31,2.31-2.54,3.4-3.8.13-.15.08-.46.1-.7-.21,0-.47,0-.63.07C694.92,369.29,693.57,370.26,692.07,371.33Zm8.74-19.25c.17,1.69.3,3.23.5,4.76,0,.25.31.46.48.69.13-.17.35-.33.37-.51.19-1.61.35-3.23.53-4.94Zm4.35,23.43c-.55-1.71-1-3.29-1.57-4.85a.77.77,0,0,0-.52-.33c-.07,0-.3.28-.29.41.15,1.69.34,3.37.53,5.15Zm7.44-6.35c-1.63-.74-3.11-1.41-4.59-2.05-.18-.07-.43,0-.64.05.07.23.06.56.22.68,1.29,1,2.61,1.91,4,2.94Zm-20.4-12.47c1.44,1,2.72,2,4,2.88.18.13.48.08.72.11,0-.24,0-.54-.13-.7-1.06-1.22-2.16-2.42-3.33-3.71Zm3.35,5.63.2-.66-5.12-2.3-.55,1.85Zm-.09,11.94c.89-1.54,1.72-2.94,2.51-4.36.1-.18,0-.48,0-.72-.24.09-.55.11-.7.28-1.11,1.19-2.18,2.41-3.34,3.72Zm-4.58-15.44c1.65.74,3.14,1.4,4.63,2,.17.07.42,0,.63,0-.08-.24-.08-.57-.24-.69-1.29-1-2.61-1.92-4-2.94Zm20.74-1.61c-1.4,1-2.73,1.94-4,2.91-.16.12-.17.45-.25.68.21,0,.46.14.63.07,1.52-.65,3-1.34,4.63-2.06Zm-21.42,9.55c.22,1.58.44,1.92,1.09,1.64,1.35-.58,2.67-1.23,4-1.88.17-.08.24-.34.36-.52-.19-.09-.41-.29-.57-.26C693.44,366.06,691.81,366.41,690.2,366.76Zm5.3-13-1.57,1.08c1.14,1.27,2.19,2.46,3.27,3.61.17.19.51.21.78.31a2.49,2.49,0,0,0-.1-.84C697.15,356.6,696.39,355.3,695.5,353.77Zm2.83-1.3c.54,1.68,1,3.22,1.56,4.76.06.18.3.29.46.44.13-.16.38-.33.37-.48-.16-1.68-.35-3.35-.55-5.12Zm15.08,14.31c-1.74-.36-3.36-.71-5-1-.16,0-.36.18-.54.27.13.17.21.43.38.51,1.48.68,3,1.34,4.58,2.06Zm-13.24,9.1c.2-1.73.39-3.33.54-4.94,0-.2-.21-.42-.33-.63-.16.13-.43.22-.48.39-.53,1.56-1,3.14-1.57,4.81Zm2.53,0-.6-5.44-.57-.05a31.33,31.33,0,0,0-.7,5.49Zm4.79-1.34c-.89-1.53-1.67-2.91-2.48-4.27-.11-.19-.41-.26-.62-.39-.07.23-.25.5-.19.69.48,1.54,1,3.07,1.56,4.73Zm2-1.44c-1.15-1.29-2.23-2.51-3.33-3.69-.14-.15-.46-.12-.69-.18,0,.21-.1.47,0,.63.81,1.44,1.65,2.86,2.53,4.38ZM708,353.75c-.89,1.53-1.73,3-2.54,4.42-.08.14,0,.4.07.6.2,0,.49,0,.61-.15,1.12-1.21,2.22-2.44,3.39-3.75Zm-16.21,17.1c1.45-1.07,2.75-2,4-3,.17-.13.23-.43.35-.65-.17-.06-.38-.23-.49-.18-1.61.66-3.19,1.36-4.87,2.08Zm18.2,1.84,1.26-1.4c-1.42-1-2.71-2-4-2.94-.16-.12-.47,0-.71,0,.06.24,0,.54.19.71C707.75,370.22,708.82,371.39,710,372.69Zm-3.71-13.29.26.36c1.82-.52,3-2.05,4.74-3.05l-1.3-1.43Zm-8.67-6.74-1.58.85,2.81,4.84C699.39,357.5,698.82,355.14,697.62,352.66Zm16,9.27c-2.77.15-5.18.9-5.36,1.67h5.51Zm-10.28-9.88c-.18,1.8-.35,3.46-.49,5.12,0,.15.23.33.35.5.14-.11.37-.19.42-.33.53-1.58,1-3.17,1.57-4.85ZM695.54,363,690,361.8l-.23,1.7C691.69,363.92,694.82,363.75,695.54,363Zm17.3-3.6c-1.6.71-3.08,1.35-4.54,2-.18.08-.25.4-.37.6.2.07.43.23.61.19,1.58-.32,3.15-.67,4.84-1Zm-7.1-6.73c-.54,1.69-1,3.19-1.5,4.71-.07.21.06.48.11.72.21-.11.53-.17.63-.35.84-1.39,1.64-2.81,2.49-4.31Zm-8,22.66c.55-1.67,1.06-3.17,1.53-4.69.06-.21-.09-.49-.14-.73-.19.09-.48.12-.57.27-.85,1.42-1.67,2.86-2.53,4.36ZM690,366.18c1.74-.37,3.3-.69,4.84-1.06.2,0,.34-.32.51-.49-.15-.1-.29-.3-.43-.3-1.7,0-3.4,0-5.18,0Zm23.78-1.86c-1.81,0-3.43,0-5,0-.18,0-.35.22-.53.33.14.15.26.41.43.45,1.61.36,3.22.7,5,1.06Zm5.67-27.61c-.19-1-.88-1.63-2.32-1.8a2.62,2.62,0,0,0-2.68,1.36Zm-35.45,0,5.19-.43a2.76,2.76,0,0,0-2.6-1.35A2.8,2.8,0,0,0,684,336.69Zm32.68,4.76h2.55A2.28,2.28,0,0,0,716,339.3Zm-2.35,50.27a2.81,2.81,0,0,0,2.87,1.3,2.62,2.62,0,0,0,2.33-1.74ZM747.84,364c1.32.9,5.24.83,5.95-.12A8.81,8.81,0,0,0,747.84,364Zm-73.66,7.57c1.21-2.32,1.05-3-.89-3.79A2.51,2.51,0,0,0,674.18,371.54Zm55.19,0c1.42-1.14,1.69-2.74.7-3.88C728.14,368.93,728.05,369.38,729.37,371.58Zm-79.86-7.71c1.37.95,5,.92,6.31-.11C653.62,363.44,651.64,363.07,649.51,363.87Zm48.89-28.24c-2.13-.88-3.33-.58-4.08.82l2.13,1-.37-.45ZM679,403.84c-1.53.67-3.39,3.83-3.27,5.44C677.48,407.86,678.16,405.93,679,403.84ZM684,391.31A2.69,2.69,0,0,0,687,393a2.47,2.47,0,0,0,2.19-1.32Zm21.26-55.65,1.74,1.86,2.18-1.14C708.15,335,706.93,334.71,705.3,335.66Zm-8.85,54.85-2.18,1.07a2.5,2.5,0,0,0,3.77.79c0-.07,0-.16-.07-.21ZM716,388.76c1.75.31,2.94-.5,3.16-2.1C716.76,386.32,716.76,386.32,716,388.76Zm-15.54-48.2a1.15,1.15,0,0,0,1.3,1.18c.82,0,1.46-.53,1.31-1.35a1.81,1.81,0,0,0-1.14-1.21C701.05,339,700.52,339.59,700.44,340.56ZM684.2,386.61c.69,1.9,1.67,2.5,3.32,2.11l-.83-2.26Zm42.34-8.31c-2.79.86-2.36.19-2.14,3.07A2.37,2.37,0,0,0,726.54,378.3Zm-47.8-54c-.12-2.11-1.9-5-3.24-5.45A11.19,11.19,0,0,0,678.74,324.32Zm26.66,68.06c1.63.9,2.92.61,3.79-.83l-2.15-1c-.51.54-1,1.05-1.48,1.57A1.5,1.5,0,0,0,705.4,392.38Zm19-45.82c-.46,2.42-.2,2.79,2.15,3.07A2.48,2.48,0,0,0,724.43,346.56Zm4.91,9.9-1.08,2.26,1.87,1.65C731,358.71,730.78,357.68,729.34,356.46Zm-4.51,47.47a8,8,0,0,0,2.95,5.15A8.46,8.46,0,0,0,724.83,403.93ZM673.67,321l-.3.34a8.36,8.36,0,0,0,3.65,3.55c.18.07.44-.08.67-.14l.13-.34Zm5.56,28-.11-2.46a2.6,2.6,0,0,0-2.19,3.26Zm45.38-24.88c1.54-.76,3.3-3.82,3.13-5.39A10.91,10.91,0,0,0,724.61,324.09ZM676.9,378.17c-.18,1.9.61,3,2.24,3.22V379Zm-3.49-17.84,1.79-1.64c-.21-.44-.38-.8-.56-1.16s-.32-.68-.5-1C672.69,357.65,672.46,358.87,673.41,360.33Zm-.15,46.54a11.05,11.05,0,0,0,4.5-3.51C676.68,402.87,674,404.89,673.26,406.87ZM655.74,363c-.39-1.33-3.54-2.57-5.31-2.15C652,362.15,653.78,362.51,655.74,363Zm31-21.43.41-1.22.4-1.16c-1.94-.1-2.79.5-3.27,2.19Zm-6.52,30h-.54c-.35.53-.92,1-1,1.58a1,1,0,0,0,1.29,1.12,2.18,2.18,0,0,0,1.29-1.35C681.32,372.54,680.57,372,680.19,371.54Zm72.64-4.31.16-.44-5.26-2C748.07,366.32,751.23,367.58,752.83,367.23Zm-41.76-26.56h-.58c-.33.48-.86.93-1,1.45a1.06,1.06,0,0,0,1.26,1.31,1.81,1.81,0,0,0,1.16-1.27C712,341.69,711.4,341.16,711.07,340.67Zm-18,.08-.53,0c-.37.49-1,.94-1,1.47a1.06,1.06,0,0,0,1.25,1.23,1.78,1.78,0,0,0,1.2-1.15C694,341.79,693.36,341.26,693.05,340.75Zm32.61,62.6c1.38,1.42,2.55,2.85,4.49,3.47C729.66,405.09,726.87,402.88,725.66,403.35Zm-46,1.07c-.56,1.81-1.28,3.55-.74,5.62C680.15,408.41,680.58,405.17,679.65,404.42Zm45.91-41.9H725c-.33.5-.88,1-.95,1.51a1.06,1.06,0,0,0,1.29,1.18,1.75,1.75,0,0,0,1.15-1.22C726.53,363.52,725.91,363,725.56,362.52Zm22.24.44c1.85-.48,3.67-.78,5.28-2.21C751.06,360.44,748,361.71,747.8,363Zm-97.32,3.86.19.44c1.73.29,4.83-1,5-2.41Zm73.26,37.4c-.82,1.45-.27,4.57.89,5.78A10.45,10.45,0,0,0,723.74,404.22ZM678.89,318c-.48,2,.15,3.78.77,5.6C680.59,322.74,680.11,319.38,678.89,318Zm13.47,69.22H693c.35-.47.92-.91,1-1.43a1,1,0,0,0-1.22-1.22c-.49.11-1.17.7-1.21,1.13S692.05,386.68,692.36,387.19ZM680.18,353.5l-.57,0c-.31.51-.83,1-.87,1.53a1,1,0,0,0,1.32,1.12,1.78,1.78,0,0,0,1.11-1.23C681.17,354.46,680.54,354,680.18,353.5Zm-.57,10.81,0-.57c-.49-.35-.94-.9-1.47-1A1,1,0,0,0,677,364a1.77,1.77,0,0,0,1.15,1.17C678.58,365.21,679.11,364.62,679.61,364.31Zm23.58,23.54v-.56c-.49-.34-1-.9-1.49-1a1,1,0,0,0-1.17,1.28c.12.48.75,1.14,1.18,1.16S702.7,388.18,703.19,387.85Zm22.2-63.23c1.59.43,4.42-1.91,4.44-3.62Zm-7.32,57.47.56,0c.35-.48,1-1,1-1.44a1.77,1.77,0,0,0-1.1-1.22,1,1,0,0,0-1.31,1.12C717.24,381.1,717.76,381.59,718.07,382.09ZM724.62,318c-1.3,1.28-1.77,4.83-.74,5.48A10.39,10.39,0,0,0,724.62,318Zm-39.23,61.2-.57,0c-.34.49-1,1-.94,1.45a1.74,1.74,0,0,0,1.12,1.2,1,1,0,0,0,1.3-1.14C686.24,380.19,685.71,379.71,685.39,379.22Zm25,8,.57,0c.35-.48.91-.92,1-1.44a1,1,0,0,0-1.22-1.21,1.78,1.78,0,0,0-1.2,1.12C709.51,386.16,710.1,386.69,710.41,387.19Zm7.78-38.41.59,0c.3-.51.88-1,.83-1.51a1.79,1.79,0,0,0-1.21-1.12,1,1,0,0,0-1.22,1.22C717.26,347.86,717.83,348.3,718.19,348.78Zm-33.49,0,.58,0c.36-.47.92-.91,1-1.43a1,1,0,0,0-1.2-1.22c-.49.1-1.17.68-1.21,1.11S684.4,348.24,684.7,348.75ZM725,373.28c-.26-1.1-.73-1.66-1.48-1.47a1.85,1.85,0,0,0-1.17,1.16,1,1,0,0,0,1.18,1.24C724,374.12,724.48,373.6,725,373.28Zm-1.78-16.87.59,0c.33-.49.86-.94,1-1.47a1,1,0,0,0-1.24-1.19,1.72,1.72,0,0,0-1.15,1.15C722.3,355.39,722.88,355.91,723.19,356.41Zm-8.49-18.85c3.69-.85,5.63,1,6.72,4.23a4.84,4.84,0,0,0-2.39-4.34A4,4,0,0,0,714.7,337.56Zm-40.92,36.09c-3.13-2.09-3.17-4.79-1.66-7.82a4.45,4.45,0,0,0-1.24,5A4.05,4.05,0,0,0,673.78,373.65Zm57.59-7.74c.64,1.36,1.43,2.72.75,4.21a36.83,36.83,0,0,1-2.33,3.79,5.65,5.65,0,0,0,3-3.78A4.29,4.29,0,0,0,731.37,365.91ZM700,334.62a4.28,4.28,0,0,0-4.74-1.56c-1.71.48-3,1.67-3,3C694.28,333.05,696.82,332.64,700,334.62Zm3.67,59a4.47,4.47,0,0,0,4.91,1.18,3.68,3.68,0,0,0,2.71-3C709.21,394.87,706.7,395.39,703.66,393.63Zm-24.21-10.14c-1.49-.36-3-.9-3.59-2.32a22.22,22.22,0,0,1-1-4.06C673.51,380.47,676.84,384.12,679.45,383.49Zm2.72,2.84a4.52,4.52,0,0,0,6.4,4.28C684.41,390.55,683.88,390.26,682.17,386.33ZM724,383.54a4.3,4.3,0,0,0,4.32-2.54,3.6,3.6,0,0,0-.12-4C728.83,380.58,727.41,382.69,724,383.54Zm-9.12,7a4.28,4.28,0,0,0,4.87-.64,3.65,3.65,0,0,0,1.45-3.78C720.46,389.65,718.34,391.07,714.89,390.57Zm16.17-28.33a4.27,4.27,0,0,0,1.56-4.88c-.49-1.63-1.69-2.86-3-2.87C732.65,356.53,733.15,359.05,731.06,362.24Zm-51.61-17.87a4.47,4.47,0,0,0-4.31,2.64,3.58,3.58,0,0,0,.16,4.05C674.59,347.4,676.06,345.28,679.45,344.37Zm2.69-2.7c.89-3.44,3.08-4.78,6.53-4.34a4.64,4.64,0,0,0-6.53,4.34ZM680.85,323a3.11,3.11,0,0,0,1-4.51Zm30.37,12.9a4.06,4.06,0,0,0-3.58-3,3.86,3.86,0,0,0-4,1.61C706.68,332.66,709.19,333,711.22,335.92Zm-30.17,69.24a9.27,9.27,0,0,0,1.06,4.41C682.92,407.67,682.36,405.44,681.05,405.16ZM655.7,366.49l-3.29,3C654.45,369.56,656.1,368,655.7,366.49Zm16.45-4.36c-1.78-3-1.33-5.61,1.52-7.76a4.33,4.33,0,0,0-2.92,3.45A4.27,4.27,0,0,0,672.15,362.13Zm59,41.82.12-.42c-1.27-1.44-3.21-2-4.38-1ZM724,344.38c3.43.88,4.82,3,4.37,6.5a4.16,4.16,0,0,0-.25-4.23A4.32,4.32,0,0,0,724,344.38Zm-2.73,65,.41.05c.27-1.4.54-2.79.87-4.43C721,405.68,720.6,407.74,721.29,409.37Zm-21.47-15.74c-3.05,1.77-5.56,1.24-7.68-1.58a4.21,4.21,0,0,0,3.18,2.87A4.29,4.29,0,0,0,699.82,393.63ZM672.35,404l4.26-1.39C675.4,401.51,673.19,402.18,672.35,404Zm-19.69-45.74-.27.29,3.4,3C656,359.91,654.55,358.54,652.66,358.21Zm69-39.65-.42.07c-.6,2-.14,3.84,1.32,4.2ZM672.37,324l-.13.44c1.43,1.44,3.08,1.91,4.43,1Zm78.47,45.8a5.18,5.18,0,0,0-3.23-3C747.56,368.1,748.72,369.21,750.84,369.84Zm-3.18-8.63a5.22,5.22,0,0,0,3.12-3C748.76,358.68,747.46,359.94,747.66,361.21Zm-16.44-36.82-.1-.34-4.26,1.35C728.11,326.42,730.12,325.83,731.22,324.39Zm-31.67,41.95-.69,1.37c.69.33,1.37.69,2.07,1,.09,0,.47-.31.49-.51C701.61,366.8,700.12,367.35,699.55,366.34Zm0-5a10.56,10.56,0,0,0,1.81-.86c.17-.12.1-.68,0-1,0-.09-.55-.09-.82,0a4.16,4.16,0,0,0-1.07.44c-.24.14-.61.46-.57.56A3.4,3.4,0,0,0,699.52,361.33Zm-.44.43-.82-.67c-.42.68-.85,1.35-1.22,2.06,0,.06.38.41.63.5a.67.67,0,0,0,.64-.14C698.59,363,698.79,362.44,699.08,361.76Zm31.64,5.1a4.27,4.27,0,0,1-1.19,5.57c1.33-.12,1.79-1.15,2.06-2A3.14,3.14,0,0,0,730.72,366.86Zm-3.2,10.83a10.51,10.51,0,0,1-.87,2.93,10,10,0,0,1-2.32,1.91A3.6,3.6,0,0,0,727.52,377.69Zm-22.76-17.45c-.64-.3-1.24-.6-1.85-.86a1,1,0,0,0-.65,0c-.1,0-.19.24-.21.39-.21,1,.68,1,1.25,1.21a2.23,2.23,0,0,0,1.18-.21C704.58,360.75,704.62,360.52,704.76,360.24Zm-.45,1.42c.2.38.32.58.42.79s.16.45.25.67c.3.69,1.53.74,1.44.12a6.29,6.29,0,0,0-.93-2.07A9.78,9.78,0,0,0,704.31,361.66Zm.55,5.83c-.43-.32-.88-.79-1-.72-.62.38-1.72.08-1.82,1.16,0,.63.2,1,.93.61.37-.21.8-.31,1.18-.49A6.2,6.2,0,0,0,704.86,367.49Zm-5.79-1.26a7.78,7.78,0,0,0-.77-1.73c-.15-.2-.71-.07-1.08-.09a3.37,3.37,0,0,0,0,.84,4.52,4.52,0,0,0,.43,1.07c.13.22.46.58.56.53A3.44,3.44,0,0,0,699.07,366.23Zm5.1,0a11.73,11.73,0,0,0,1.31.57,14.16,14.16,0,0,0,1-2.05c0-.07-.36-.41-.57-.43C704.51,364.22,705.06,365.63,704.17,366.24Zm16.07-24.74a3,3,0,0,0-1.89-3.14c-1.43-.68-2.19-.65-3.05.11A4.35,4.35,0,0,1,720.24,341.5Zm-46.35,30.89a4.41,4.41,0,0,1-1.06-5.58A3.35,3.35,0,0,0,673.89,372.39Zm-1.2-11.29a9.08,9.08,0,0,1-.33-2.9,10.14,10.14,0,0,1,1.43-2.69C671.6,356.39,671,359.65,672.69,361.1Zm56.82-5.59a4.18,4.18,0,0,1,1.11,5.65A3.38,3.38,0,0,0,729.51,355.51ZM676,377.68a3.53,3.53,0,0,0,.79,3.83,2.38,2.38,0,0,0,2.68.79C676.84,381.72,676,380,676,377.68Zm34.14-41.5a3.21,3.21,0,0,0-3-2.21,2.83,2.83,0,0,0-2.82,1.38C706.74,333.93,708.58,334.35,710.17,336.18Zm14.1,9.35a4.35,4.35,0,0,1,3.17,4.76,3,3,0,0,0-.18-3A3.06,3.06,0,0,0,724.27,345.53Zm-44.79.05a3.12,3.12,0,0,0-3.16,1.51,3,3,0,0,0,0,3.48C675.86,347.81,677,346.34,679.48,345.58Zm13.82,46.2a3.13,3.13,0,0,0,3.09,2.19,2.42,2.42,0,0,0,2.54-1.2A4.07,4.07,0,0,1,693.3,391.78ZM688,389.62a4.17,4.17,0,0,1-4.66-3.21A3.33,3.33,0,0,0,688,389.62Zm5.34-53.44a4.13,4.13,0,0,1,5.6-1.07A3.33,3.33,0,0,0,693.31,336.18Zm-10.1,5.24a10.42,10.42,0,0,1,1.91-2.34,9.23,9.23,0,0,1,2.79-.84A3.49,3.49,0,0,0,683.21,341.42Zm32.29,48.24a2.92,2.92,0,0,0,3.27-.37,3,3,0,0,0,1.4-3.21C719.45,388.73,717.9,389.79,715.5,389.66Zm-5.31,2.08c-1.52,2-3.45,2.13-5.61,1.21A3.41,3.41,0,0,0,710.19,391.74Zm10.29,12.31c-2.08-1.08-2.35-1-3.45.36Zm-61.34-32.92c.66-1.75,0-2.61-1.4-3.47Zm13.65,15.17-.46,3.67C673.68,388.86,673.66,387.79,672.79,386.3ZM683,404l3.61.42C685.48,403.17,684.43,403,683,404Zm62.65-36.18c-1.7.69-1.78,1.9-1.35,3.32Zm-78,10c-.6-1.33-1.45-2-3-1.24Zm49.18-54.27c1.2,1.43,2.29,1.39,3.65.53Zm-33.92.55c2.12.93,2.5.87,3.59-.53Zm13.94,76.18c-1.74-.06-2.66.49-2.86,2.19Zm12.71,2.25c-.74-2.11-.81-2.16-2.9-2.21Zm-12.72-74.77-2.94-2.18A2.4,2.4,0,0,0,696.85,327.71Zm30.15.1c-.1,1.68.47,2.56,2.17,2.83Zm-17.43-2.36-2.88,2.3A2.46,2.46,0,0,0,709.57,325.45Zm-33.1,2.33-2.17,2.9A2.37,2.37,0,0,0,676.47,327.78Zm69.24,32.44-1.36-3.29C743.73,358.56,744.23,359.49,745.71,360.22Zm-73.45-22.3.57,3.61C673.73,340.14,673.6,339.11,672.26,337.92Zm57,59.39c-1.74.34-2.36,1.2-2.22,2.85Zm-70.05-40.44-1.36,3.22C659.37,359.43,659.69,358.48,659.17,356.87Zm79.69-5.41-3.3-1.34C736.36,351.48,737.2,352.18,738.86,351.46Zm-64.65,45.81,2.22,2.81C676.61,398.34,675.86,397.63,674.21,397.27ZM731.13,338c-1.29,1.21-1.41,2.22-.4,3.48Zm4.65,39.79,3-1.23C737.5,376.11,736.39,376,735.78,377.79Zm-4.64,12.09c-.16-1.25-.29-2.23-.46-3.49C729.82,387.76,729.78,388.76,731.14,389.88Zm-66.31-38.5c1.24.53,2.25.46,2.82-1.14Z" transform="translate(-645.57 -305.34)"/><path d="M657.58,343.64c.48-2.44-.78-4.27-2.1-6.31,2.42-.12,4.68.22,6.48-1.32C663.19,337.94,660.34,343.32,657.58,343.64Zm-.9-5.6,1.88,4.55c1.71-.87,3.37-3.79,3-5.35Z" transform="translate(-645.57 -305.34)"/><path d="M665.36,343l-4.79.56,2.83-4.88Zm-.86-.51-1.1-2.42L662,342.64Z" transform="translate(-645.57 -305.34)"/><path d="M701.75,417.63c-1.17-2.33-2.09-4.39-4.41-5.22,1.73-2.2,7-2.21,8.81,0C703.81,413.24,702.9,415.31,701.75,417.63ZM698.6,412l3.14,3.86,3.14-3.85A7.49,7.49,0,0,0,698.6,412Z" transform="translate(-645.57 -305.34)"/><path d="M698.78,409.9l3-3.81,2.92,3.81Zm3-2.91-1.4,2.12h2.8Z" transform="translate(-645.57 -305.34)"/><path d="M697.27,315.6c2.38-.88,3.31-3,4.49-5.24,1.1,2.29,2.1,4.34,4.34,5.23C704.92,317.6,699.11,317.83,697.27,315.6Zm4.47-3.49-3.07,3.79c1.83,1.07,4.81,1,6.1,0Z" transform="translate(-645.57 -305.34)"/><path d="M701.75,322l-3-3.89h5.87Zm-1.45-3.14,1.46,2.14,1.37-2.14Z" transform="translate(-645.57 -305.34)"/><path d="M657.55,384.32c2.75.38,5.58,5.39,4.49,7.68-1.89-1.51-4.12-1.37-6.65-1.19C656.58,388.65,658.13,386.86,657.55,384.32Zm4,6.36a6.11,6.11,0,0,0-3.06-5.27l-1.67,4.5Z" transform="translate(-645.57 -305.34)"/><path d="M663.46,389.46l-2.89-5,4.8.54Zm-.09-1.67,1.09-2.27-2.53-.21Z" transform="translate(-645.57 -305.34)"/><path d="M741.47,336c1.89,1.55,4.13,1.4,6.68,1.18-1.34,2.15-2.69,4-2.3,6.44C743.11,343.2,740.48,338.65,741.47,336Zm.41,1.3c-.25,1.71,1.3,4.42,3.06,5.32l1.71-4.51Z" transform="translate(-645.57 -305.34)"/><path d="M740,338.52l2.92,5.05-4.82-.58Zm.1,1.65L739,342.55h2.51Z" transform="translate(-645.57 -305.34)"/><path d="M745.87,384.33c-.42,2.5,1,4.32,2.28,6.49-2.5-.15-4.76-.4-6.63,1.15C740.36,389.64,742.89,385.08,745.87,384.33Zm.77,5.56-1.69-4.5a6.35,6.35,0,0,0-3.1,5.33Z" transform="translate(-645.57 -305.34)"/><path d="M743.18,384.38a26.13,26.13,0,0,0-1.8,2.43,28.34,28.34,0,0,0-1.25,2.84l-2-4.67Zm-1.63.93-2.56.23,1.15,2.2Z" transform="translate(-645.57 -305.34)"/><path d="M701.75,366.16a2.2,2.2,0,0,1-2.19-2.2,2.25,2.25,0,0,1,2.23-2.17,2.19,2.19,0,0,1,0,4.37Zm0-3.74a1.51,1.51,0,0,0-1.55,1.49,1.57,1.57,0,0,0,1.52,1.66,1.66,1.66,0,0,0,1.64-1.57A1.62,1.62,0,0,0,701.73,362.42Z" transform="translate(-645.57 -305.34)"/><path d="M658,338.79l2.87-.37-1.76,2.88Z" transform="translate(-645.57 -305.34)"/><path d="M700,412.23h3.42l-1.67,2.32Z" transform="translate(-645.57 -305.34)"/><path d="M701.75,313.42l1.67,2.28h-3.36Z" transform="translate(-645.57 -305.34)"/><path d="M659.11,386.55l1.84,3-3-.31Z" transform="translate(-645.57 -305.34)"/><path d="M745.5,338.73l-1.15,2.69-1.81-3.07Z" transform="translate(-645.57 -305.34)"/><path d="M744.36,386.54l1.15,2.72-3,.35Z" transform="translate(-645.57 -305.34)"/></svg>